<?xml version="1.0" encoding="UTF-8"?>
<svg id="Logo" xmlns="http://www.w3.org/2000/svg" viewBox="0 0 926.1 927.95">
  <defs>
    <style>
      .cls-1 {
        fill: #0c1e50;
      }
    </style>
  </defs>
  <g>
    <path class="cls-1" d="m267.28,304.67v120.2c0,8.06,2.33,15.94,6.7,22.71l145.41,224.77c1.36,2.1,4.61,1.14,4.61-1.36v-129.82l-152.11-237.84c-1.35-2.11-4.62-1.16-4.62,1.35Z"/>
    <path class="cls-1" d="m424.01,304.67v120.2c0,8.06,2.33,15.94,6.7,22.71l145.41,224.77c1.36,2.1,4.61,1.14,4.61-1.36v-129.82l-152.11-237.84c-1.35-2.11-4.62-1.16-4.62,1.35Z"/>
    <path class="cls-1" d="m673.87,303.79v96.56c0,8.86-2.82,17.49-8.04,24.65l-84.76,116.11.04-104.05c0-8.84,2.81-17.45,8.01-24.6l80.22-110.15c1.43-1.96,4.54-.95,4.54,1.48Z"/>
  </g>
  <g>
    <path class="cls-1" d="m142.6,473.39l-49.84,12.1.26-8.57,32.82-7.43c.53-.13,1.26-.27,2.18-.44.92-.16,1.87-.31,2.86-.45.99-.14,1.9-.27,2.72-.38v-.43c-.61-.16-1.28-.3-1.99-.42-.72-.12-1.43-.26-2.15-.43-.72-.17-1.38-.32-2-.46-.62-.14-1.12-.24-1.51-.3l-32.33-8.78.32-10.37,32.8-6.86c.53-.13,1.26-.27,2.18-.44.92-.16,1.87-.31,2.86-.45.99-.14,1.9-.27,2.72-.39v-.43c-.56-.11-1.2-.25-1.92-.42-.72-.17-1.42-.33-2.11-.5-.69-.17-1.35-.34-1.97-.53-.62-.19-1.17-.34-1.65-.45l-32.31-9.42.23-7.64,49.01,15.13-.29,9.44-33.25,7.28c-.73.12-1.56.26-2.5.43-.94.16-1.91.31-2.9.45-.99.14-1.85.24-2.57.32v.36c.75.12,1.64.27,2.64.44,1,.17,1.97.37,2.9.59.93.22,1.71.41,2.33.58l32.75,9.15-.3,9.73Z"/>
    <path class="cls-1" d="m150.01,394.69l-47.59-13.42,10.41-36.91,6.66,1.88-8.22,29.14,13.25,3.74,7.36-26.08,6.66,1.88-7.36,26.08,14.36,4.05,8.33-29.55,6.66,1.88-10.53,37.32Z"/>
    <path class="cls-1" d="m169.46,334.09l-34.34-40.52,4.89-9.07,52.76,6.32-4.1,7.61-12.17-1.56-11.11,20.62,8,9.31-3.93,7.3Zm-8.87-22.13l8.61-15.99-15.39-1.98c-.45-.08-1.08-.17-1.89-.28-.81-.11-1.7-.24-2.65-.4-.95-.16-1.91-.32-2.89-.49-.97-.17-1.85-.33-2.65-.48l-.21.38c.67.69,1.45,1.52,2.34,2.49.9.97,1.75,1.91,2.57,2.82.82.91,1.48,1.66,1.98,2.25l10.16,11.69Z"/>
    <path class="cls-1" d="m215.79,260.76l-49.5-18.08,5.64-6.65,34.26,12.99c.59.19,1.26.44,2.01.75.74.31,1.46.61,2.14.87.69.27,1.29.5,1.82.69l.23-.27c-.28-.49-.6-1.04-.95-1.66-.36-.62-.73-1.25-1.13-1.9-.39-.65-.77-1.28-1.13-1.9l-18.55-31.61,5.45-6.43,25.87,45.94-6.15,7.26Z"/>
    <path class="cls-1" d="m253.76,221.19l-30.1-39.23,30.42-23.34,4.21,5.49-24.02,18.43,8.38,10.92,21.5-16.5,4.21,5.49-21.5,16.5,9.08,11.84,24.36-18.69,4.21,5.49-30.76,23.61Z"/>
    <path class="cls-1" d="m364.04,160.48c-4.79,1.58-9.15,2.07-13.06,1.46s-7.36-2.42-10.33-5.43c-2.97-3.02-5.37-7.31-7.21-12.88-2.71-8.21-2.73-14.97-.05-20.29,2.68-5.31,7.57-9.14,14.69-11.49,3.92-1.29,7.67-1.8,11.23-1.5,3.56.29,6.68,1.45,9.35,3.48,2.67,2.03,4.67,5.08,6.01,9.14l-7.8,2.57c-.83-2.51-2.05-4.43-3.65-5.78-1.61-1.34-3.52-2.13-5.75-2.35-2.23-.23-4.62.08-7.17.92-3.19,1.05-5.69,2.57-7.49,4.56-1.8,1.99-2.84,4.42-3.13,7.3-.29,2.88.21,6.26,1.48,10.14l.5,1.51c1.28,3.88,2.89,6.89,4.84,9.03,1.95,2.14,4.21,3.46,6.8,3.94,2.59.49,5.5.2,8.74-.87,2.65-.87,4.81-2.05,6.5-3.55,1.68-1.49,2.78-3.26,3.3-5.3.52-2.04.36-4.32-.47-6.83l7.53-2.48c1.34,4.06,1.54,7.71.62,10.95-.93,3.24-2.75,6.02-5.45,8.33-2.71,2.31-6.04,4.12-10.01,5.43Z"/>
    <path class="cls-1" d="m435.71,145.99c-5.08.43-9.55-.13-13.42-1.68-3.87-1.55-6.96-4.14-9.26-7.75-2.31-3.61-3.7-8.27-4.19-13.97-.49-5.75.1-10.58,1.77-14.51,1.67-3.93,4.28-6.98,7.83-9.16,3.55-2.18,7.87-3.49,12.94-3.92,5.17-.44,9.68.12,13.52,1.68,3.84,1.55,6.92,4.13,9.23,7.72,2.3,3.59,3.7,8.26,4.19,14,.48,5.7-.11,10.52-1.78,14.47-1.67,3.95-4.26,7.02-7.79,9.2-3.53,2.18-7.88,3.49-13.05,3.93Zm-.58-6.82c2.63-.22,4.94-.78,6.91-1.67,1.97-.89,3.6-2.14,4.89-3.74,1.29-1.6,2.21-3.56,2.76-5.88.55-2.31.7-4.95.45-7.92l-.13-1.58c-.26-3.06-.86-5.69-1.79-7.88-.93-2.19-2.17-3.96-3.71-5.33-1.54-1.36-3.36-2.32-5.45-2.87-2.1-.54-4.46-.71-7.09-.48-2.59.22-4.87.77-6.84,1.66-1.97.89-3.6,2.14-4.89,3.74-1.29,1.6-2.19,3.56-2.72,5.87-.53,2.31-.66,5-.4,8.06l.13,1.58c.25,2.97.83,5.55,1.74,7.74.91,2.19,2.13,3.97,3.67,5.33,1.54,1.36,3.35,2.32,5.45,2.87,2.1.55,4.44.71,7.02.49Z"/>
    <path class="cls-1" d="m490.24,144.8l6.29-49.04,8.01,1.03-5.4,42.11,24.45,3.14-.89,6.93-32.46-4.16Z"/>
    <path class="cls-1" d="m549.77,155.53l15.45-46.97,7.67,2.52-13.27,40.33,23.42,7.7-2.19,6.64-31.08-10.23Z"/>
    <path class="cls-1" d="m601.49,174.33l41.51-33.13,8.93,5.15-7.87,52.55-7.49-4.32,1.92-12.12-20.29-11.71-9.54,7.73-7.18-4.14Zm22.39-8.22l15.73,9.08,2.44-15.32c.09-.45.2-1.07.34-1.88.13-.81.29-1.69.48-2.64.19-.95.38-1.9.58-2.87.2-.97.38-1.84.56-2.63l-.38-.22c-.71.65-1.56,1.4-2.56,2.27-1,.87-1.96,1.7-2.89,2.49-.93.79-1.7,1.43-2.31,1.91l-11.99,9.81Z"/>
    <path class="cls-1" d="m665.35,215.26l33.48-36.38,19.31,17.76c2.02,1.86,3.45,3.84,4.3,5.97.85,2.12,1.09,4.26.73,6.4-.37,2.14-1.39,4.11-3.04,5.92-1.27,1.38-2.68,2.4-4.23,3.06-1.55.66-3.14.96-4.76.91-1.62-.05-3.17-.4-4.66-1.06l-.2.21c1.05,1.49,1.74,3.09,2.09,4.81.34,1.72.26,3.47-.24,5.26-.5,1.79-1.54,3.53-3.1,5.23-2.12,2.3-4.36,3.73-6.73,4.28s-4.71.42-7.01-.42c-2.3-.84-4.51-2.24-6.63-4.19l-19.31-17.77Zm10.63.37l12.89,11.86c1.63,1.5,3.36,2.29,5.2,2.39,1.84.09,3.66-.83,5.44-2.78,1.07-1.17,1.77-2.37,2.09-3.61.32-1.24.24-2.48-.23-3.74-.48-1.25-1.39-2.5-2.73-3.74l-12.46-11.47-10.2,11.08Zm14.79-16.07l11.99,11.03c1.13,1.04,2.3,1.72,3.5,2.05,1.2.32,2.38.3,3.54-.07,1.16-.37,2.18-1.03,3.05-1.99,1.59-1.73,2.3-3.45,2.13-5.14-.17-1.69-1.02-3.24-2.54-4.64l-12.36-11.37-9.32,10.13Z"/>
    <path class="cls-1" d="m727.09,284.67c-2.87-4.21-4.57-8.38-5.12-12.52-.54-4.13.19-8.09,2.21-11.88,2.02-3.78,5.39-7.28,10.12-10.5,4.77-3.24,9.27-5.1,13.51-5.57,4.24-.47,8.18.3,11.83,2.33,3.64,2.02,6.9,5.14,9.76,9.35,2.92,4.29,4.64,8.49,5.17,12.61.53,4.11-.2,8.05-2.2,11.83-2,3.77-5.38,7.28-10.15,10.52-4.73,3.22-9.22,5.07-13.48,5.55-4.26.49-8.21-.27-11.84-2.28-3.63-2.01-6.91-5.15-9.82-9.44Zm5.66-3.85c1.49,2.18,3.1,3.92,4.85,5.2,1.74,1.28,3.63,2.09,5.66,2.43,2.03.33,4.19.17,6.47-.48,2.29-.65,4.66-1.82,7.12-3.5l1.31-.89c2.54-1.73,4.54-3.54,5.99-5.42,1.45-1.89,2.39-3.83,2.82-5.84.43-2.01.38-4.06-.18-6.16-.55-2.09-1.57-4.23-3.06-6.42-1.46-2.15-3.06-3.86-4.81-5.14-1.75-1.28-3.63-2.09-5.66-2.43-2.03-.33-4.18-.16-6.45.51-2.27.67-4.68,1.88-7.22,3.61l-1.31.89c-2.46,1.68-4.43,3.45-5.89,5.31-1.46,1.87-2.41,3.8-2.84,5.81-.44,2.01-.38,4.06.18,6.16.55,2.09,1.56,4.21,3.02,6.36Z"/>
    <path class="cls-1" d="m755.03,331.28l46.21-17.59,9.26,24.32c1.25,3.28,1.7,6.22,1.35,8.82-.35,2.6-1.36,4.84-3.04,6.71-1.68,1.87-3.91,3.34-6.69,4.4-3.1,1.18-6.06,1.51-8.88.99-2.82-.52-5.26-1.85-7.31-4l-15.46,16.92-3.13-8.22,14.52-15.55-6.1-16.03-17.85,6.8-2.87-7.54Zm27.05-1.66l6.16,16.17c.92,2.43,2.36,4.03,4.3,4.8,1.94.78,4.19.68,6.75-.3,1.57-.6,2.8-1.4,3.67-2.4.88-1,1.39-2.18,1.55-3.52.16-1.34-.08-2.85-.71-4.51l-6.16-16.17-15.56,5.92Z"/>
    <path class="cls-1" d="m776.52,394.75l51.66,12.33,1.43,10.21-46.26,26.14-1.2-8.57,10.74-5.95-3.25-23.2-11.96-2.76-1.15-8.21Zm20.25,12.59l2.52,17.99,13.58-7.51c.41-.2.97-.5,1.69-.89.72-.39,1.51-.81,2.37-1.24.86-.44,1.73-.87,2.62-1.31.88-.44,1.69-.83,2.42-1.18l-.06-.43c-.94-.16-2.07-.37-3.36-.62-1.3-.25-2.55-.5-3.74-.75-1.2-.24-2.17-.46-2.93-.64l-15.11-3.41Z"/>
    <path class="cls-1" d="m782.84,476.53l42.47,2.18.84-16.34,6.91.35-2.1,40.89-6.91-.35.85-16.48-42.47-2.18.41-8.06Z"/>
    <path class="cls-1" d="m776.44,529.12l48.29,10.63-1.74,7.88-48.29-10.63,1.73-7.88Z"/>
    <path class="cls-1" d="m756.86,588.78c1.99-4.69,4.58-8.38,7.76-11.07,3.18-2.69,6.91-4.21,11.18-4.56,4.27-.35,9.04.6,14.3,2.83,5.31,2.26,9.3,5.04,12,8.35,2.69,3.31,4.17,7.05,4.43,11.21.27,4.16-.6,8.58-2.59,13.27-2.03,4.78-4.63,8.5-7.81,11.17s-6.89,4.19-11.14,4.54c-4.25.36-9.03-.59-14.34-2.85-5.26-2.24-9.25-5.02-11.96-8.34-2.71-3.32-4.21-7.05-4.48-11.19-.28-4.14.6-8.6,2.63-13.37Zm6.3,2.68c-1.03,2.43-1.62,4.73-1.76,6.89-.14,2.16.2,4.18,1.02,6.07.82,1.89,2.12,3.62,3.9,5.19,1.79,1.57,4.05,2.94,6.79,4.1l1.46.62c2.83,1.2,5.43,1.9,7.8,2.1,2.37.2,4.52-.06,6.44-.78,1.92-.72,3.62-1.88,5.08-3.48,1.46-1.6,2.71-3.61,3.75-6.04,1.02-2.39,1.59-4.66,1.73-6.82.14-2.16-.2-4.19-1.02-6.07-.82-1.89-2.12-3.61-3.92-5.15-1.8-1.55-4.11-2.92-6.94-4.13l-1.46-.62c-2.74-1.17-5.29-1.86-7.65-2.08-2.36-.22-4.5.03-6.43.75-1.93.72-3.62,1.88-5.08,3.48-1.46,1.6-2.7,3.59-3.72,5.98Z"/>
    <path class="cls-1" d="m732.76,637.49l39.75,29.4-4.63,6.26-38.33-.29c-.4.06-.92.08-1.56.05-.64-.03-1.27-.06-1.9-.1-.62-.04-1.12-.11-1.47-.19l-.21.29c.58.43,1.14.84,1.68,1.24.54.4,1.08.8,1.62,1.2l24.92,18.43-4.63,6.26-39.75-29.4,4.46-6.03,38.79.27c.69.03,1.57.08,2.62.15s1.87.12,2.42.18l.21-.29c-.54-.4-1.09-.81-1.65-1.22-.56-.42-1.15-.85-1.77-1.31l-25.21-18.64,4.63-6.26Z"/>
    <path class="cls-1" d="m658.63,717.93l27.93,40.8-20.34,13.93c-2.89,1.98-5.66,3.09-8.3,3.32s-5.08-.26-7.35-1.48c-2.26-1.22-4.27-3.12-6.04-5.69-1.76-2.58-2.8-5.2-3.12-7.87-.31-2.67.15-5.21,1.38-7.62,1.23-2.42,3.25-4.59,6.07-6.51l13.44-9.2-10.34-15.11,6.66-4.56Zm7.59,25.38l-13.14,9c-2.1,1.44-3.32,3.21-3.66,5.3-.34,2.1.26,4.28,1.81,6.54,1.03,1.51,2.17,2.61,3.4,3.31,1.23.7,2.54.98,3.91.86,1.37-.12,2.81-.7,4.32-1.73l13.14-9-9.77-14.27Z"/>
    <path class="cls-1" d="m608.4,750.21l1.05,53.1-9.52,3.95-36.93-38.2,7.99-3.32,8.46,8.9,21.63-8.98-.33-12.27,7.66-3.18Zm-7.09,22.77l-16.77,6.96,10.68,11.25c.3.34.73.82,1.29,1.42.56.6,1.16,1.26,1.8,1.98.64.72,1.28,1.46,1.93,2.2.65.75,1.23,1.43,1.75,2.05l.4-.17c-.08-.95-.17-2.09-.25-3.41-.08-1.32-.15-2.59-.22-3.81-.06-1.22-.1-2.22-.11-3l-.5-15.48Z"/>
    <path class="cls-1" d="m537.12,776.02l8.31,48.74-25.65,4.37c-3.46.59-6.43.46-8.91-.38-2.48-.84-4.48-2.27-5.99-4.28-1.51-2.01-2.52-4.48-3.02-7.42-.56-3.27-.31-6.24.75-8.9,1.06-2.67,2.84-4.8,5.34-6.39l-13.6-18.45,8.67-1.48,12.45,17.25,16.91-2.88-3.21-18.83,7.96-1.36Zm-3.61,26.87l-17.05,2.91c-2.56.44-4.41,1.53-5.54,3.29-1.14,1.75-1.48,3.98-1.02,6.68.28,1.66.83,3.01,1.64,4.07.81,1.06,1.87,1.79,3.15,2.2,1.29.41,2.81.47,4.56.17l17.05-2.91-2.8-16.41Z"/>
    <path class="cls-1" d="m454.59,783.9l-1.64,42.49,16.35.63-.27,6.91-40.91-1.58.27-6.91,16.49.64,1.64-42.49,8.07.31Z"/>
    <path class="cls-1" d="m402.37,778.92l-12.42,47.86-7.54-1.96-14.05-35.67c-.21-.35-.42-.83-.63-1.43-.22-.6-.42-1.2-.61-1.8-.19-.6-.32-1.08-.37-1.44l-.35-.09c-.18.7-.36,1.37-.53,2.02-.17.65-.34,1.3-.51,1.95l-7.79,30-7.53-1.96,12.42-47.86,7.26,1.88,14.24,36.09c.23.66.51,1.48.84,2.49.33,1,.58,1.78.74,2.31l.35.09c.17-.65.34-1.31.52-1.99.18-.67.36-1.38.55-2.13l7.88-30.35,7.53,1.96Z"/>
    <path class="cls-1" d="m332.54,756.83l-22.73,43.91-34.05-17.63,3.18-6.14,26.88,13.92,6.33-12.23-24.07-12.46,3.18-6.15,24.07,12.46,6.86-13.25-27.27-14.11,3.18-6.15,34.44,17.83Z"/>
    <path class="cls-1" d="m272.92,722.19l-31.78,37.88-19.93-16.73c-2.69-2.25-4.51-4.6-5.48-7.04-.96-2.44-1.17-4.89-.62-7.34s1.79-4.82,3.7-7.1c2.13-2.54,4.56-4.27,7.27-5.19,2.72-.92,5.49-.94,8.33-.06l5.26-22.31,6.74,5.65-5.1,20.65,13.14,11.03,12.28-14.63,6.18,5.19Zm-22.82,14.63l-13.25-11.12c-1.99-1.67-4.02-2.37-6.09-2.1-2.07.27-3.99,1.45-5.75,3.55-1.08,1.29-1.76,2.58-2.04,3.89-.28,1.3-.16,2.58.36,3.83.52,1.25,1.46,2.45,2.82,3.59l13.25,11.12,10.7-12.75Z"/>
    <path class="cls-1" d="m209.5,657.81c1.64,2.14,2.99,4.37,4.07,6.68,1.08,2.32,1.72,4.62,1.91,6.89.2,2.27-.12,4.42-.96,6.45-.83,2.03-2.3,3.85-4.4,5.46-.23.18-.45.33-.68.48-.22.14-.41.27-.57.39l-4.91-6.41c.11-.09.29-.21.54-.37.24-.16.44-.29.59-.41,1.41-1.08,2.29-2.42,2.64-4.02.35-1.6.2-3.34-.46-5.23-.66-1.89-1.73-3.8-3.22-5.75-.82-1.07-1.67-2.05-2.57-2.94-.89-.89-1.8-1.63-2.71-2.24-.91-.6-1.82-1.04-2.73-1.31-.91-.27-1.8-.35-2.67-.23-.87.12-1.71.49-2.51,1.11-1.22.93-1.96,2.06-2.22,3.38-.26,1.32-.2,2.78.19,4.4.39,1.61.95,3.33,1.68,5.16.73,1.83,1.51,3.7,2.31,5.63.81,1.92,1.5,3.86,2.08,5.8.58,1.95.92,3.83,1.02,5.66.1,1.83-.2,3.57-.9,5.23-.7,1.66-1.95,3.17-3.74,4.54-1.72,1.32-3.52,2.12-5.41,2.42-1.89.3-3.81.1-5.76-.58-1.95-.69-3.88-1.81-5.8-3.37-1.92-1.56-3.8-3.54-5.64-5.94-1.58-2.06-2.85-4.17-3.81-6.34-.96-2.17-1.51-4.29-1.65-6.36-.14-2.07.2-4.04,1.02-5.91.81-1.86,2.19-3.54,4.14-5.03l.69-.53,4.86,6.35-.74.57c-1.22.93-1.97,2.09-2.26,3.45-.28,1.37-.16,2.88.38,4.52.54,1.65,1.46,3.33,2.77,5.05,1.55,2.02,3.05,3.57,4.5,4.63,1.45,1.07,2.8,1.68,4.05,1.85,1.25.17,2.37-.13,3.36-.89,1.11-.85,1.74-1.9,1.89-3.17.15-1.26.01-2.69-.41-4.27-.42-1.58-1.01-3.28-1.77-5.09-.75-1.81-1.52-3.68-2.29-5.6-.77-1.92-1.45-3.85-2.03-5.8-.58-1.94-.91-3.84-.99-5.68-.08-1.84.22-3.6.91-5.28.69-1.67,1.92-3.2,3.72-4.57,2.82-2.16,5.66-3.21,8.52-3.16,2.85.05,5.62,1,8.31,2.85,2.69,1.85,5.24,4.35,7.67,7.52Z"/>
    <path class="cls-1" d="m146.08,574.43c.58,1.68.73,3.3.43,4.85-.3,1.55-.96,2.93-2,4.13-1.03,1.2-2.39,2.09-4.07,2.68-1.72.6-3.36.75-4.92.45s-2.93-.96-4.13-2-2.09-2.39-2.68-4.07c-.6-1.72-.75-3.36-.45-4.92.3-1.55.96-2.93,2-4.13,1.03-1.2,2.41-2.1,4.14-2.7,1.68-.58,3.3-.73,4.85-.43,1.55.3,2.93.96,4.13,2s2.1,2.41,2.7,4.13Z"/>
  </g>
</svg>