<?xml version="1.0" encoding="UTF-8"?>
<svg id="Logo" xmlns="http://www.w3.org/2000/svg" viewBox="0 0 2150.85 680.57">
  <defs>
    <style>
      .cls-1 {
        fill: #f0b910;
      }

      .cls-2 {
        fill: #d64646;
      }

      .cls-3 {
        fill: #a8a8a8;
      }

      .cls-4 {
        fill: #1e4db8;
      }
    </style>
  </defs>
  <g>
    <path class="cls-4" d="m109.75,120.16v143.76c0,9.64,2.78,19.07,8.02,27.16l173.91,268.82c1.62,2.51,5.52,1.36,5.52-1.63v-155.27L115.28,118.54c-1.62-2.53-5.53-1.38-5.53,1.62Z"/>
    <path class="cls-2" d="m297.2,120.16v143.76c0,9.64,2.78,19.07,8.02,27.16l173.91,268.82c1.62,2.51,5.52,1.36,5.52-1.63v-155.27L302.72,118.54c-1.62-2.53-5.53-1.38-5.53,1.62Z"/>
    <path class="cls-1" d="m596.03,119.12v115.49c0,10.6-3.37,20.92-9.62,29.48l-101.38,138.86.05-124.45c0-10.57,3.36-20.87,9.58-29.42l95.94-131.74c1.71-2.35,5.43-1.14,5.43,1.77Z"/>
  </g>
  <g>
    <path d="m840.51,224.33l-25.73-92.4h13.74l16.43,62.36c.27.99.61,2.4,1.01,4.24.4,1.84.83,3.75,1.28,5.72.45,1.98.81,3.73,1.08,5.25h.94c.27-1.17.52-2.47.74-3.91.22-1.44.49-2.87.81-4.31.31-1.44.61-2.78.88-4.04.27-1.26.45-2.24.54-2.96l15.35-62.36h16.57l15.35,62.36c.27.99.61,2.4,1.01,4.24.4,1.84.81,3.75,1.21,5.72.4,1.98.74,3.73,1.01,5.25h.94c.27-1.17.54-2.45.81-3.84.27-1.39.58-2.81.94-4.24.36-1.44.69-2.78,1.01-4.04.31-1.26.56-2.29.74-3.1l16.57-62.36h12.12l-25.73,92.4h-15.35l-16.03-62.77c-.27-1.35-.58-2.94-.94-4.78-.36-1.84-.72-3.75-1.08-5.72-.36-1.97-.67-3.68-.94-5.12h-.81c-.18,1.53-.45,3.28-.81,5.25-.36,1.98-.74,3.91-1.14,5.79-.4,1.89-.74,3.41-1.01,4.58l-15.62,62.77h-15.89Z"/>
    <path d="m957.29,224.33v-92.4h71.12v11.04h-58.32v28.55h52.39v11.04h-52.39v30.71h59.13v11.04h-71.93Z"/>
    <path d="m1045.91,224.33l36.5-92.4h16.84l36.64,92.4h-13.87l-9.02-22.9h-44.99l-8.89,22.9h-13.2Zm26.27-33.81h36.5l-11.18-28.96c-.27-.81-.67-1.93-1.21-3.37-.54-1.44-1.12-3.03-1.75-4.78-.63-1.75-1.26-3.55-1.89-5.39-.63-1.84-1.21-3.52-1.75-5.05h-.81c-.63,1.8-1.35,3.86-2.15,6.2-.81,2.34-1.62,4.6-2.42,6.8-.81,2.2-1.48,4.06-2.02,5.59l-11.31,28.96Z"/>
    <path d="m1176.97,224.33l-34.48-92.4h13.87l23.71,65.46c.54,1.26,1.08,2.69,1.62,4.31s1.08,3.19,1.62,4.71c.54,1.53,1.03,2.88,1.48,4.04h.81c.36-1.08.81-2.38,1.35-3.91.54-1.53,1.08-3.07,1.62-4.65.54-1.57,1.08-3.07,1.62-4.51l23.44-65.46h13.47l-34.62,92.4h-15.49Z"/>
    <path d="m1248.08,224.33v-92.4h71.12v11.04h-58.32v28.55h52.39v11.04h-52.39v30.71h59.13v11.04h-71.93Z"/>
    <path d="m864.22,387.58c-9.43,0-17.42-1.73-23.97-5.19-6.56-3.46-11.56-8.71-15.02-15.76-3.46-7.05-5.19-16-5.19-26.87,0-16.07,3.91-28.06,11.72-35.96,7.81-7.9,18.68-11.85,32.6-11.85,7.9,0,14.9,1.28,21.01,3.84,6.11,2.56,10.89,6.42,14.34,11.58,3.46,5.16,5.19,11.65,5.19,19.46h-12.93c0-5.39-1.14-9.83-3.43-13.33-2.29-3.5-5.5-6.13-9.63-7.88-4.13-1.75-8.98-2.63-14.55-2.63-6.46,0-12.03,1.26-16.7,3.77-4.67,2.51-8.22,6.4-10.64,11.65-2.42,5.25-3.64,12.01-3.64,20.27v2.83c0,8.17,1.21,14.84,3.64,20,2.42,5.16,5.95,8.96,10.57,11.38,4.62,2.42,10.21,3.64,16.77,3.64,5.75,0,10.71-.85,14.88-2.56,4.17-1.71,7.41-4.33,9.7-7.88,2.29-3.55,3.43-8.01,3.43-13.4h12.53c0,7.99-1.77,14.55-5.32,19.66-3.55,5.12-8.37,8.94-14.48,11.45-6.11,2.51-13.06,3.77-20.88,3.77Z"/>
    <path d="m972.37,387.58c-9.61,0-17.85-1.75-24.72-5.25s-12.17-8.8-15.89-15.89c-3.73-7.09-5.59-15.98-5.59-26.67s1.86-19.69,5.59-26.74c3.72-7.05,9.02-12.32,15.89-15.83s15.11-5.25,24.72-5.25,17.85,1.75,24.72,5.25,12.17,8.78,15.89,15.83c3.72,7.05,5.59,15.96,5.59,26.74s-1.87,19.58-5.59,26.67c-3.73,7.09-9.02,12.39-15.89,15.89s-15.11,5.25-24.72,5.25Zm0-11.04c5.03,0,9.58-.67,13.67-2.02,4.08-1.35,7.54-3.48,10.37-6.4,2.83-2.92,5-6.6,6.53-11.04,1.53-4.44,2.29-9.72,2.29-15.83v-2.83c0-6.2-.76-11.52-2.29-15.96-1.53-4.44-3.7-8.13-6.53-11.04-2.83-2.92-6.29-5.05-10.37-6.4-4.09-1.35-8.64-2.02-13.67-2.02s-9.7.67-13.74,2.02c-4.04,1.35-7.5,3.48-10.37,6.4-2.88,2.92-5.05,6.6-6.53,11.04s-2.22,9.77-2.22,15.96v2.83c0,6.11.74,11.38,2.22,15.83s3.66,8.13,6.53,11.04c2.87,2.92,6.33,5.05,10.37,6.4,4.04,1.35,8.62,2.02,13.74,2.02Z"/>
    <path d="m1045.11,385.96v-92.4h12.8v81.22h45.93v11.18h-58.73Z"/>
    <path d="m1125.38,385.96v-92.4h12.8v81.22h45.93v11.18h-58.73Z"/>
    <path d="m1195.02,385.96l36.5-92.4h16.84l36.64,92.4h-13.87l-9.02-22.9h-44.99l-8.89,22.9h-13.2Zm26.27-33.81h36.5l-11.18-28.96c-.27-.81-.67-1.93-1.21-3.37-.54-1.44-1.12-3.03-1.75-4.78-.63-1.75-1.26-3.55-1.89-5.39-.63-1.84-1.21-3.52-1.75-5.05h-.81c-.63,1.8-1.35,3.86-2.15,6.2-.81,2.34-1.62,4.6-2.42,6.8-.81,2.2-1.48,4.06-2.02,5.59l-11.31,28.96Z"/>
    <path d="m1305.6,385.96v-92.4h47.68c5.3,0,9.88.92,13.74,2.76,3.86,1.84,6.85,4.42,8.96,7.74,2.11,3.32,3.17,7.27,3.17,11.85,0,3.5-.63,6.73-1.89,9.7-1.26,2.96-3.01,5.43-5.25,7.41-2.25,1.98-4.8,3.46-7.68,4.44v.54c3.23.72,6.15,2.02,8.75,3.91,2.6,1.89,4.69,4.38,6.26,7.48,1.57,3.1,2.36,6.89,2.36,11.38,0,6.02-1.26,10.87-3.77,14.55-2.51,3.68-5.88,6.38-10.1,8.08-4.22,1.71-9.07,2.56-14.55,2.56h-47.68Zm12.8-52.8h32.46c3.05,0,5.7-.61,7.95-1.82,2.24-1.21,4.02-2.92,5.32-5.12,1.3-2.2,1.95-4.69,1.95-7.48,0-4.85-1.3-8.42-3.91-10.71-2.61-2.29-6.06-3.43-10.37-3.43h-33.4v28.55Zm0,41.75h34.75c4.58,0,8.3-1.19,11.18-3.57,2.87-2.38,4.31-6.35,4.31-11.92,0-3.41-.63-6.26-1.89-8.55-1.26-2.29-3.1-3.99-5.52-5.12-2.42-1.12-5.48-1.68-9.16-1.68h-33.67v30.84Z"/>
    <path d="m1449.18,387.58c-9.61,0-17.85-1.75-24.72-5.25s-12.17-8.8-15.89-15.89c-3.73-7.09-5.59-15.98-5.59-26.67s1.86-19.69,5.59-26.74c3.72-7.05,9.02-12.32,15.89-15.83s15.11-5.25,24.72-5.25,17.85,1.75,24.72,5.25,12.17,8.78,15.89,15.83c3.72,7.05,5.59,15.96,5.59,26.74s-1.87,19.58-5.59,26.67c-3.73,7.09-9.02,12.39-15.89,15.89s-15.11,5.25-24.72,5.25Zm0-11.04c5.03,0,9.58-.67,13.67-2.02,4.08-1.35,7.54-3.48,10.37-6.4,2.83-2.92,5-6.6,6.53-11.04,1.53-4.44,2.29-9.72,2.29-15.83v-2.83c0-6.2-.76-11.52-2.29-15.96-1.53-4.44-3.7-8.13-6.53-11.04-2.83-2.92-6.29-5.05-10.37-6.4-4.09-1.35-8.64-2.02-13.67-2.02s-9.7.67-13.74,2.02c-4.04,1.35-7.5,3.48-10.37,6.4-2.88,2.92-5.05,6.6-6.53,11.04s-2.22,9.77-2.22,15.96v2.83c0,6.11.74,11.38,2.22,15.83s3.66,8.13,6.53,11.04c2.87,2.92,6.33,5.05,10.37,6.4,4.04,1.35,8.62,2.02,13.74,2.02Z"/>
    <path d="m1521.91,385.96v-92.4h48.62c6.28,0,11.52,1.15,15.69,3.43s7.29,5.48,9.36,9.56c2.06,4.09,3.1,8.78,3.1,14.08,0,6.38-1.44,11.85-4.31,16.43-2.88,4.58-6.83,7.86-11.85,9.83l19.4,39.06h-14.01l-18.05-36.77h-35.15v36.77h-12.8Zm12.8-47.68h34.62c5.12,0,9.14-1.57,12.05-4.71,2.92-3.14,4.38-7.45,4.38-12.93,0-3.41-.63-6.28-1.89-8.62-1.26-2.33-3.1-4.15-5.52-5.46-2.42-1.3-5.43-1.95-9.02-1.95h-34.62v33.67Z"/>
    <path d="m1617.27,385.96l36.5-92.4h16.84l36.64,92.4h-13.87l-9.02-22.9h-44.99l-8.89,22.9h-13.2Zm26.27-33.81h36.5l-11.18-28.96c-.27-.81-.67-1.93-1.21-3.37-.54-1.44-1.12-3.03-1.75-4.78-.63-1.75-1.26-3.55-1.89-5.39-.63-1.84-1.21-3.52-1.75-5.05h-.81c-.63,1.8-1.35,3.86-2.15,6.2-.81,2.34-1.62,4.6-2.42,6.8-.81,2.2-1.48,4.06-2.02,5.59l-11.31,28.96Z"/>
    <path d="m1738.76,385.96v-81.22h-31.65v-11.18h76.37v11.18h-31.92v81.22h-12.79Z"/>
    <path d="m1805.84,385.96v-92.4h12.8v92.4h-12.8Z"/>
    <path d="m1891.36,387.58c-9.61,0-17.85-1.75-24.72-5.25s-12.17-8.8-15.89-15.89c-3.73-7.09-5.59-15.98-5.59-26.67s1.86-19.69,5.59-26.74c3.72-7.05,9.02-12.32,15.89-15.83s15.11-5.25,24.72-5.25,17.85,1.75,24.72,5.25,12.17,8.78,15.89,15.83c3.72,7.05,5.59,15.96,5.59,26.74s-1.87,19.58-5.59,26.67c-3.73,7.09-9.02,12.39-15.89,15.89s-15.11,5.25-24.72,5.25Zm0-11.04c5.03,0,9.58-.67,13.67-2.02,4.08-1.35,7.54-3.48,10.37-6.4,2.83-2.92,5-6.6,6.53-11.04,1.53-4.44,2.29-9.72,2.29-15.83v-2.83c0-6.2-.76-11.52-2.29-15.96-1.53-4.44-3.7-8.13-6.53-11.04-2.83-2.92-6.29-5.05-10.37-6.4-4.09-1.35-8.64-2.02-13.67-2.02s-9.7.67-13.74,2.02c-4.04,1.35-7.5,3.48-10.37,6.4-2.88,2.92-5.05,6.6-6.53,11.04s-2.22,9.77-2.22,15.96v2.83c0,6.11.74,11.38,2.22,15.83s3.66,8.13,6.53,11.04c2.87,2.92,6.33,5.05,10.37,6.4,4.04,1.35,8.62,2.02,13.74,2.02Z"/>
    <path d="m1964.1,385.96v-92.4h12.39l44.85,60.88c.45.54,1.03,1.35,1.75,2.42.72,1.08,1.44,2.13,2.16,3.17.72,1.03,1.3,1.95,1.75,2.76h.54v-69.23h12.53v92.4h-11.72l-45.39-61.96c-.63-.99-1.55-2.38-2.76-4.18-1.21-1.79-2.22-3.23-3.03-4.31h-.67v70.44h-12.39Z"/>
    <path d="m824.75,547.59v-92.4h45.66c6.37,0,11.67,1.19,15.89,3.57,4.22,2.38,7.39,5.68,9.5,9.9,2.11,4.22,3.17,9.11,3.17,14.68s-1.17,10.66-3.5,15.02c-2.34,4.36-5.64,7.74-9.9,10.17-4.27,2.42-9.36,3.64-15.29,3.64h-32.73v35.42h-12.8Zm12.8-46.47h31.92c5.03,0,9.04-1.57,12.05-4.71,3.01-3.14,4.51-7.45,4.51-12.93,0-3.68-.63-6.78-1.89-9.29-1.26-2.51-3.1-4.47-5.52-5.86-2.42-1.39-5.48-2.09-9.16-2.09h-31.92v34.89Z"/>
    <path d="m905.03,547.59l36.5-92.4h16.84l36.64,92.4h-13.87l-9.02-22.9h-44.99l-8.89,22.9h-13.2Zm26.27-33.81h36.5l-11.18-28.96c-.27-.81-.67-1.93-1.21-3.37-.54-1.44-1.12-3.03-1.75-4.78-.63-1.75-1.26-3.55-1.89-5.39-.63-1.84-1.21-3.52-1.75-5.05h-.81c-.63,1.8-1.35,3.86-2.15,6.2-.81,2.34-1.62,4.6-2.42,6.8-.81,2.2-1.48,4.06-2.02,5.59l-11.31,28.96Z"/>
    <path d="m1015.61,547.59v-92.4h48.62c6.28,0,11.52,1.15,15.69,3.43s7.29,5.48,9.36,9.56c2.06,4.09,3.1,8.78,3.1,14.08,0,6.38-1.44,11.85-4.31,16.43-2.88,4.58-6.83,7.86-11.85,9.83l19.4,39.06h-14.01l-18.05-36.77h-35.15v36.77h-12.8Zm12.8-47.68h34.62c5.12,0,9.14-1.57,12.05-4.71,2.92-3.14,4.38-7.45,4.38-12.93,0-3.41-.63-6.28-1.89-8.62-1.26-2.33-3.1-4.15-5.52-5.46-2.42-1.3-5.43-1.95-9.02-1.95h-34.62v33.67Z"/>
    <path d="m1140.87,547.59v-81.22h-31.65v-11.18h76.37v11.18h-31.92v81.22h-12.79Z"/>
    <path d="m1207.95,547.59v-92.4h12.39l44.85,60.88c.45.54,1.03,1.35,1.75,2.42.72,1.08,1.44,2.13,2.16,3.17.72,1.03,1.3,1.95,1.75,2.76h.54v-69.23h12.53v92.4h-11.72l-45.39-61.96c-.63-.99-1.55-2.38-2.76-4.18-1.21-1.79-2.22-3.23-3.03-4.31h-.67v70.44h-12.39Z"/>
    <path d="m1315.16,547.59v-92.4h71.12v11.04h-58.32v28.55h52.39v11.04h-52.39v30.71h59.13v11.04h-71.93Z"/>
    <path d="m1414.42,547.59v-92.4h48.62c6.28,0,11.52,1.15,15.69,3.43s7.29,5.48,9.36,9.56c2.06,4.09,3.1,8.78,3.1,14.08,0,6.38-1.44,11.85-4.31,16.43-2.88,4.58-6.83,7.86-11.85,9.83l19.4,39.06h-14.01l-18.05-36.77h-35.15v36.77h-12.8Zm12.8-47.68h34.62c5.12,0,9.14-1.57,12.05-4.71,2.92-3.14,4.38-7.45,4.38-12.93,0-3.41-.63-6.28-1.89-8.62-1.26-2.33-3.1-4.15-5.52-5.46-2.42-1.3-5.43-1.95-9.02-1.95h-34.62v33.67Z"/>
    <path d="m1554.37,549.2c-5.03,0-9.86-.49-14.48-1.48-4.62-.99-8.73-2.58-12.32-4.78-3.59-2.2-6.44-5.05-8.55-8.55-2.11-3.5-3.17-7.81-3.17-12.93,0-.45.02-.9.07-1.35.04-.45.07-.9.07-1.35h12.93c0,.27-.02.7-.07,1.28-.05.58-.07,1.1-.07,1.55,0,3.59,1.08,6.65,3.23,9.16,2.16,2.52,5.14,4.38,8.96,5.59,3.82,1.21,8.15,1.82,13,1.82,2.16,0,4.42-.13,6.8-.4,2.38-.27,4.67-.74,6.87-1.41,2.2-.67,4.17-1.57,5.93-2.69,1.75-1.12,3.14-2.51,4.18-4.18,1.03-1.66,1.55-3.7,1.55-6.13,0-3.05-.88-5.59-2.63-7.61s-4.06-3.68-6.94-4.98c-2.87-1.3-6.13-2.47-9.76-3.5-3.64-1.03-7.39-2.04-11.25-3.03-3.86-.99-7.61-2.13-11.25-3.43-3.64-1.3-6.89-2.92-9.77-4.85-2.88-1.93-5.19-4.33-6.94-7.21-1.75-2.87-2.63-6.38-2.63-10.51,0-3.86.79-7.32,2.36-10.37,1.57-3.05,3.91-5.63,7-7.74,3.1-2.11,6.94-3.73,11.52-4.85,4.58-1.12,9.83-1.68,15.76-1.68,4.85,0,9.36.52,13.54,1.55,4.18,1.03,7.86,2.61,11.04,4.71,3.19,2.11,5.68,4.78,7.48,8.01,1.79,3.23,2.69,7.14,2.69,11.72v1.62h-12.66v-2.02c0-3.05-.94-5.66-2.83-7.81-1.89-2.16-4.47-3.82-7.75-4.98-3.28-1.17-6.98-1.75-11.11-1.75-5.39,0-9.88.52-13.47,1.55-3.59,1.03-6.26,2.52-8.01,4.44-1.75,1.93-2.63,4.11-2.63,6.53,0,2.78.88,5.12,2.63,7s4.06,3.43,6.94,4.65c2.87,1.21,6.15,2.31,9.83,3.3,3.68.99,7.43,2,11.25,3.03,3.82,1.03,7.54,2.2,11.18,3.5,3.64,1.3,6.91,2.92,9.83,4.85,2.92,1.93,5.23,4.36,6.94,7.27,1.71,2.92,2.56,6.49,2.56,10.71,0,6.56-1.62,11.88-4.85,15.96-3.23,4.09-7.68,7.07-13.33,8.96-5.66,1.89-12.21,2.83-19.67,2.83Z"/>
  </g>
  <rect class="cls-3" x="704.57" y="54.89" width="3.73" height="570"/>
</svg>