<?xml version="1.0" encoding="UTF-8"?>
<svg id="Logo" xmlns="http://www.w3.org/2000/svg" viewBox="0 0 1322.58 417.91">
  <defs>
    <style>
      .cls-1 {
        fill: #fff;
      }
    </style>
  </defs>
  <path class="cls-1" d="m68.03,73.78v88.28c0,5.92,1.71,11.71,4.92,16.68l106.79,165.07c1,1.54,3.39.84,3.39-1v-95.34L71.42,72.79c-.99-1.55-3.39-.85-3.39.99Z"/>
  <path class="cls-1" d="m183.13,73.78v88.28c0,5.92,1.71,11.71,4.92,16.68l106.79,165.07c1,1.54,3.39.84,3.39-1v-95.34l-111.71-174.67c-.99-1.55-3.39-.85-3.39.99Z"/>
  <path class="cls-1" d="m366.63,73.14v70.92c0,6.51-2.07,12.85-5.91,18.1l-62.25,85.27.03-76.42c0-6.49,2.06-12.82,5.88-18.06l58.91-80.9c1.05-1.44,3.33-.7,3.33,1.08Z"/>
  <path class="cls-1" d="m571.96,121.13v-38.98c0-1.02-.82-1.84-1.84-1.84h-154.92c-1.02,0-1.84.82-1.84,1.84v252.86c0,1.02.82,1.84,1.84,1.84h154.92c1.02,0,1.84-.82,1.84-1.84v-38.98c0-1.02-.82-1.84-1.84-1.84h-105.07V122.97h105.07c1.02,0,1.84-.82,1.84-1.84Z"/>
  <path class="cls-1" d="m560.9,177.71h-95.86l22.32,39.54c1.09,1.93,3.13,3.12,5.35,3.12h68.19c1.02,0,1.84-.82,1.84-1.84v-38.98c0-1.02-.82-1.84-1.84-1.84Z"/>
  <path class="cls-1" d="m1243.9,177.71h-95.86l22.32,39.54c1.09,1.93,3.13,3.12,5.35,3.12h68.19c1.02,0,1.84-.82,1.84-1.84v-38.98c0-1.02-.82-1.84-1.84-1.84Z"/>
  <path class="cls-1" d="m1254.96,121.13v-38.98c0-1.02-.82-1.84-1.84-1.84h-154.92c-1.02,0-1.84.82-1.84,1.84v252.86c0,1.02.82,1.84,1.84,1.84h154.92c1.02,0,1.84-.82,1.84-1.84v-38.98c0-1.02-.82-1.84-1.84-1.84h-105.07V122.97h105.07c1.02,0,1.84-.82,1.84-1.84Z"/>
  <path class="cls-1" d="m720.52,70.53l-96.98,170.01c-2.64,4.63-4.03,9.88-4.03,15.21v86.92c0,1.89,2.51,2.56,3.45.91l99.17-175.63,99.17,175.63c.93,1.65,3.45.99,3.45-.91v-86.92c0-5.34-1.39-10.58-4.03-15.21l-96.98-170.01c-.71-1.24-2.49-1.24-3.2,0Z"/>
  <path class="cls-1" d="m946.31,249.21l-99.17-175.63c-.93-1.65-3.45-.99-3.45.91v86.92c0,5.34,1.39,10.58,4.03,15.21l96.98,170.01c.71,1.24,2.49,1.24,3.2,0l96.98-170.01c2.64-4.63,4.03-9.88,4.03-15.21v-86.92c0-1.89-2.51-2.56-3.45-.91l-99.17,175.63Z"/>
</svg>