<?xml version="1.0" encoding="UTF-8"?>
<svg id="Logo" xmlns="http://www.w3.org/2000/svg" viewBox="0 0 707.11 680.57">
  <defs>
    <style>
      .cls-1 {
        fill: #0c1e50;
      }
    </style>
  </defs>
  <path class="cls-1" d="m110.05,120.16v143.76c0,9.64,2.78,19.07,8.02,27.16l173.91,268.82c1.62,2.51,5.52,1.36,5.52-1.63v-155.27L115.57,118.54c-1.62-2.53-5.53-1.38-5.53,1.62Z"/>
  <path class="cls-1" d="m297.5,120.16v143.76c0,9.64,2.78,19.07,8.02,27.16l173.91,268.82c1.62,2.51,5.52,1.36,5.52-1.63v-155.27L303.02,118.54c-1.62-2.53-5.53-1.38-5.53,1.62Z"/>
  <path class="cls-1" d="m596.33,119.12v115.49c0,10.6-3.37,20.92-9.62,29.48l-101.38,138.86.05-124.45c0-10.57,3.36-20.87,9.58-29.42l95.94-131.74c1.71-2.35,5.43-1.14,5.43,1.77Z"/>
</svg>