<?xml version="1.0" encoding="UTF-8"?>
<svg id="Logo" xmlns="http://www.w3.org/2000/svg" viewBox="0 0 2153.85 843.41">
  <defs>
    <style>
      .cls-1 {
        fill: #fff;
      }
    </style>
  </defs>
  <g>
    <path class="cls-1" d="m360.96,730.6c-7.34,0-13.56-1.35-18.66-4.05-5.1-2.7-9-6.81-11.69-12.31-2.69-5.51-4.04-12.51-4.04-21,0-12.56,3.04-21.93,9.12-28.1,6.08-6.17,14.53-9.26,25.36-9.26,6.15,0,11.6,1,16.35,3,4.75,2,8.47,5.02,11.16,9.05,2.69,4.04,4.04,9.11,4.04,15.21h-10.06c0-4.21-.89-7.68-2.67-10.42-1.78-2.74-4.28-4.79-7.49-6.16-3.21-1.37-6.99-2.05-11.32-2.05-5.03,0-9.36.98-13,2.95-3.63,1.97-6.39,5-8.28,9.11-1.89,4.1-2.83,9.39-2.83,15.84v2.21c0,6.39.94,11.6,2.83,15.63,1.89,4.04,4.63,7,8.23,8.89,3.6,1.89,7.95,2.84,13.05,2.84,4.47,0,8.33-.67,11.58-2,3.25-1.33,5.76-3.38,7.55-6.16,1.78-2.77,2.67-6.26,2.67-10.47h9.75c0,6.25-1.38,11.37-4.14,15.37-2.76,4-6.52,6.98-11.27,8.95-4.75,1.96-10.17,2.95-16.25,2.95Z"/>
    <path class="cls-1" d="m445.12,730.6c-7.48,0-13.89-1.37-19.23-4.11-5.35-2.74-9.47-6.88-12.37-12.42-2.9-5.54-4.35-12.49-4.35-20.84s1.45-15.38,4.35-20.89c2.9-5.51,7.02-9.63,12.37-12.37,5.35-2.74,11.75-4.11,19.23-4.11s13.89,1.37,19.23,4.11c5.35,2.74,9.47,6.86,12.37,12.37,2.9,5.51,4.35,12.47,4.35,20.89s-1.45,15.3-4.35,20.84c-2.9,5.54-7.02,9.68-12.37,12.42-5.35,2.74-11.76,4.11-19.23,4.11Zm0-8.63c3.91,0,7.46-.53,10.64-1.58,3.18-1.05,5.87-2.72,8.07-5,2.2-2.28,3.89-5.16,5.08-8.63,1.19-3.47,1.78-7.59,1.78-12.37v-2.21c0-4.84-.59-9-1.78-12.47-1.19-3.47-2.88-6.35-5.08-8.63-2.2-2.28-4.89-3.95-8.07-5-3.18-1.05-6.73-1.58-10.64-1.58s-7.55.53-10.69,1.58c-3.14,1.05-5.83,2.72-8.07,5-2.24,2.28-3.93,5.16-5.08,8.63s-1.73,7.63-1.73,12.47v2.21c0,4.77.58,8.89,1.73,12.37s2.85,6.35,5.08,8.63c2.24,2.28,4.93,3.95,8.07,5,3.14,1.05,6.71,1.58,10.69,1.58Z"/>
    <path class="cls-1" d="m501.71,729.34v-72.21h9.96v63.47h35.74v8.74h-45.7Z"/>
    <path class="cls-1" d="m564.18,729.34v-72.21h9.96v63.47h35.74v8.74h-45.7Z"/>
    <path class="cls-1" d="m618.37,729.34l28.4-72.21h13.1l28.51,72.21h-10.8l-7.02-17.89h-35.01l-6.92,17.89h-10.27Zm20.44-26.42h28.4l-8.7-22.63c-.21-.63-.52-1.51-.94-2.63-.42-1.12-.87-2.37-1.36-3.74-.49-1.37-.98-2.77-1.47-4.21-.49-1.44-.94-2.75-1.36-3.95h-.63c-.49,1.4-1.05,3.02-1.68,4.84-.63,1.83-1.26,3.6-1.89,5.32-.63,1.72-1.15,3.18-1.57,4.37l-8.8,22.63Z"/>
    <path class="cls-1" d="m704.41,729.34v-72.21h37.1c4.12,0,7.69.72,10.69,2.16,3,1.44,5.33,3.46,6.97,6.05,1.64,2.6,2.46,5.68,2.46,9.26,0,2.74-.49,5.26-1.47,7.58-.98,2.32-2.34,4.25-4.09,5.79-1.75,1.54-3.74,2.7-5.97,3.47v.42c2.52.56,4.79,1.58,6.81,3.05,2.03,1.47,3.65,3.42,4.87,5.84,1.22,2.42,1.83,5.39,1.83,8.89,0,4.7-.98,8.49-2.93,11.37-1.96,2.88-4.58,4.98-7.86,6.31-3.28,1.33-7.06,2-11.32,2h-37.1Zm9.96-41.26h25.26c2.37,0,4.44-.47,6.18-1.42,1.75-.95,3.13-2.28,4.14-4,1.01-1.72,1.52-3.67,1.52-5.84,0-3.79-1.01-6.58-3.04-8.37-2.03-1.79-4.72-2.68-8.07-2.68h-25.99v22.31Zm0,32.63h27.04c3.56,0,6.46-.93,8.7-2.79,2.24-1.86,3.35-4.96,3.35-9.32,0-2.67-.49-4.89-1.47-6.68-.98-1.79-2.41-3.12-4.3-4-1.89-.88-4.26-1.32-7.13-1.32h-26.2v24.1Z"/>
    <path class="cls-1" d="m816.14,730.6c-7.48,0-13.89-1.37-19.23-4.11-5.35-2.74-9.47-6.88-12.37-12.42-2.9-5.54-4.35-12.49-4.35-20.84s1.45-15.38,4.35-20.89c2.9-5.51,7.02-9.63,12.37-12.37,5.35-2.74,11.75-4.11,19.23-4.11s13.89,1.37,19.23,4.11c5.35,2.74,9.47,6.86,12.37,12.37,2.9,5.51,4.35,12.47,4.35,20.89s-1.45,15.3-4.35,20.84c-2.9,5.54-7.02,9.68-12.37,12.42-5.35,2.74-11.76,4.11-19.23,4.11Zm0-8.63c3.91,0,7.46-.53,10.64-1.58,3.18-1.05,5.87-2.72,8.07-5,2.2-2.28,3.89-5.16,5.08-8.63,1.19-3.47,1.78-7.59,1.78-12.37v-2.21c0-4.84-.59-9-1.78-12.47-1.19-3.47-2.88-6.35-5.08-8.63-2.2-2.28-4.89-3.95-8.07-5-3.18-1.05-6.73-1.58-10.64-1.58s-7.55.53-10.69,1.58c-3.14,1.05-5.83,2.72-8.07,5-2.24,2.28-3.93,5.16-5.08,8.63s-1.73,7.63-1.73,12.47v2.21c0,4.77.58,8.89,1.73,12.37s2.85,6.35,5.08,8.63c2.24,2.28,4.93,3.95,8.07,5,3.14,1.05,6.71,1.58,10.69,1.58Z"/>
    <path class="cls-1" d="m872.73,729.34v-72.21h37.84c4.89,0,8.96.9,12.21,2.68s5.68,4.28,7.28,7.47c1.61,3.19,2.41,6.86,2.41,11,0,4.98-1.12,9.26-3.35,12.84-2.24,3.58-5.31,6.14-9.22,7.68l15.09,30.52h-10.9l-14.04-28.73h-27.35v28.73h-9.96Zm9.96-37.26h26.94c3.98,0,7.11-1.23,9.38-3.68,2.27-2.46,3.41-5.82,3.41-10.1,0-2.67-.49-4.91-1.47-6.74-.98-1.82-2.41-3.25-4.3-4.26-1.89-1.02-4.23-1.53-7.02-1.53h-26.94v26.31Z"/>
    <path class="cls-1" d="m946.94,729.34l28.4-72.21h13.1l28.51,72.21h-10.8l-7.02-17.89h-35.01l-6.92,17.89h-10.27Zm20.44-26.42h28.4l-8.7-22.63c-.21-.63-.52-1.51-.94-2.63-.42-1.12-.87-2.37-1.36-3.74-.49-1.37-.98-2.77-1.47-4.21-.49-1.44-.94-2.75-1.36-3.95h-.63c-.49,1.4-1.05,3.02-1.68,4.84-.63,1.83-1.26,3.6-1.89,5.32-.63,1.72-1.15,3.18-1.57,4.37l-8.8,22.63Z"/>
    <path class="cls-1" d="m1041.48,729.34v-63.47h-24.63v-8.74h59.43v8.74h-24.84v63.47h-9.96Z"/>
    <path class="cls-1" d="m1093.67,729.34v-72.21h9.96v72.21h-9.96Z"/>
    <path class="cls-1" d="m1160.22,730.6c-7.48,0-13.89-1.37-19.23-4.11-5.35-2.74-9.47-6.88-12.37-12.42-2.9-5.54-4.35-12.49-4.35-20.84s1.45-15.38,4.35-20.89c2.9-5.51,7.02-9.63,12.37-12.37,5.35-2.74,11.76-4.11,19.23-4.11s13.89,1.37,19.23,4.11c5.35,2.74,9.47,6.86,12.37,12.37,2.9,5.51,4.35,12.47,4.35,20.89s-1.45,15.3-4.35,20.84c-2.9,5.54-7.02,9.68-12.37,12.42-5.35,2.74-11.76,4.11-19.23,4.11Zm0-8.63c3.91,0,7.46-.53,10.64-1.58,3.18-1.05,5.87-2.72,8.07-5,2.2-2.28,3.89-5.16,5.08-8.63,1.19-3.47,1.78-7.59,1.78-12.37v-2.21c0-4.84-.59-9-1.78-12.47-1.19-3.47-2.88-6.35-5.08-8.63-2.2-2.28-4.89-3.95-8.07-5-3.18-1.05-6.73-1.58-10.64-1.58s-7.55.53-10.69,1.58c-3.14,1.05-5.83,2.72-8.07,5-2.24,2.28-3.93,5.16-5.08,8.63s-1.73,7.63-1.73,12.47v2.21c0,4.77.58,8.89,1.73,12.37s2.85,6.35,5.08,8.63c2.24,2.28,4.93,3.95,8.07,5,3.14,1.05,6.71,1.58,10.69,1.58Z"/>
    <path class="cls-1" d="m1216.82,729.34v-72.21h9.64l34.9,47.58c.35.42.8,1.05,1.36,1.89.56.84,1.12,1.67,1.68,2.47.56.81,1.01,1.53,1.36,2.16h.42v-54.1h9.75v72.21h-9.12l-35.32-48.42c-.49-.77-1.21-1.86-2.15-3.26-.94-1.4-1.73-2.53-2.36-3.37h-.52v55.05h-9.64Z"/>
    <path class="cls-1" d="m1328.44,729.34v-72.21h35.53c4.96,0,9.08.93,12.37,2.79,3.28,1.86,5.75,4.44,7.39,7.74,1.64,3.3,2.46,7.12,2.46,11.47s-.91,8.33-2.73,11.74c-1.82,3.41-4.39,6.05-7.7,7.95-3.32,1.89-7.28,2.84-11.9,2.84h-25.47v27.68h-9.96Zm9.96-36.31h24.84c3.91,0,7.04-1.23,9.38-3.68,2.34-2.46,3.51-5.82,3.51-10.1,0-2.88-.49-5.3-1.47-7.26-.98-1.96-2.41-3.49-4.3-4.58s-4.26-1.63-7.13-1.63h-24.84v27.26Z"/>
    <path class="cls-1" d="m1390.91,729.34l28.4-72.21h13.1l28.51,72.21h-10.79l-7.02-17.89h-35.01l-6.92,17.89h-10.27Zm20.44-26.42h28.4l-8.7-22.63c-.21-.63-.52-1.51-.94-2.63-.42-1.12-.87-2.37-1.36-3.74-.49-1.37-.98-2.77-1.47-4.21-.49-1.44-.94-2.75-1.36-3.95h-.63c-.49,1.4-1.05,3.02-1.68,4.84-.63,1.83-1.26,3.6-1.89,5.32-.63,1.72-1.15,3.18-1.57,4.37l-8.8,22.63Z"/>
    <path class="cls-1" d="m1476.95,729.34v-72.21h37.84c4.89,0,8.96.9,12.21,2.68s5.68,4.28,7.28,7.47c1.61,3.19,2.41,6.86,2.41,11,0,4.98-1.12,9.26-3.35,12.84-2.24,3.58-5.31,6.14-9.22,7.68l15.09,30.52h-10.9l-14.04-28.73h-27.35v28.73h-9.96Zm9.96-37.26h26.94c3.98,0,7.11-1.23,9.38-3.68,2.27-2.46,3.41-5.82,3.41-10.1,0-2.67-.49-4.91-1.47-6.74-.98-1.82-2.41-3.25-4.3-4.26-1.89-1.02-4.23-1.53-7.02-1.53h-26.94v26.31Z"/>
    <path class="cls-1" d="m1574.42,729.34v-63.47h-24.63v-8.74h59.43v8.74h-24.84v63.47h-9.96Z"/>
    <path class="cls-1" d="m1626.62,729.34v-72.21h9.64l34.9,47.58c.35.42.8,1.05,1.36,1.89.56.84,1.12,1.67,1.68,2.47.56.81,1.01,1.53,1.36,2.16h.42v-54.1h9.75v72.21h-9.12l-35.32-48.42c-.49-.77-1.21-1.86-2.15-3.26-.94-1.4-1.73-2.53-2.36-3.37h-.52v55.05h-9.64Z"/>
    <path class="cls-1" d="m1710.04,729.34v-72.21h55.34v8.63h-45.38v22.31h40.77v8.63h-40.77v24h46.01v8.63h-55.97Z"/>
    <path class="cls-1" d="m1787.29,729.34v-72.21h37.84c4.89,0,8.96.9,12.21,2.68s5.68,4.28,7.28,7.47c1.61,3.19,2.41,6.86,2.41,11,0,4.98-1.12,9.26-3.35,12.84-2.24,3.58-5.31,6.14-9.22,7.68l15.09,30.52h-10.9l-14.04-28.73h-27.35v28.73h-9.96Zm9.96-37.26h26.94c3.98,0,7.11-1.23,9.38-3.68,2.27-2.46,3.41-5.82,3.41-10.1,0-2.67-.49-4.91-1.47-6.74-.98-1.82-2.41-3.25-4.3-4.26-1.89-1.02-4.23-1.53-7.02-1.53h-26.94v26.31Z"/>
    <path class="cls-1" d="m1896.18,730.6c-3.91,0-7.67-.39-11.27-1.16-3.6-.77-6.8-2.02-9.59-3.74-2.8-1.72-5.01-3.95-6.66-6.68-1.64-2.74-2.46-6.11-2.46-10.11,0-.35.02-.7.05-1.05.03-.35.05-.7.05-1.05h10.06c0,.21-.02.54-.05,1-.04.46-.05.86-.05,1.21,0,2.81.84,5.19,2.52,7.16,1.68,1.96,4,3.42,6.97,4.37,2.97.95,6.34,1.42,10.11,1.42,1.68,0,3.44-.11,5.29-.32,1.85-.21,3.63-.58,5.35-1.11,1.71-.53,3.25-1.23,4.61-2.1,1.36-.88,2.45-1.96,3.25-3.26.8-1.3,1.21-2.89,1.21-4.79,0-2.38-.68-4.37-2.04-5.95-1.36-1.58-3.16-2.88-5.4-3.89-2.24-1.02-4.77-1.93-7.6-2.74-2.83-.81-5.75-1.59-8.75-2.37-3.01-.77-5.92-1.67-8.75-2.68-2.83-1.02-5.36-2.28-7.6-3.79-2.24-1.51-4.04-3.38-5.4-5.63-1.36-2.25-2.04-4.98-2.04-8.21,0-3.02.61-5.72,1.83-8.11,1.22-2.38,3.04-4.4,5.45-6.05,2.41-1.65,5.4-2.91,8.96-3.79,3.56-.88,7.65-1.32,12.26-1.32,3.77,0,7.28.4,10.53,1.21,3.25.81,6.11,2.04,8.59,3.68,2.48,1.65,4.42,3.74,5.82,6.26,1.4,2.53,2.1,5.58,2.1,9.16v1.26h-9.85v-1.58c0-2.38-.73-4.42-2.2-6.11-1.47-1.68-3.48-2.98-6.03-3.89-2.55-.91-5.43-1.37-8.65-1.37-4.19,0-7.69.4-10.48,1.21-2.8.81-4.87,1.97-6.24,3.47-1.36,1.51-2.04,3.21-2.04,5.1,0,2.18.68,4,2.04,5.47,1.36,1.47,3.16,2.68,5.4,3.63,2.24.95,4.79,1.81,7.65,2.58,2.86.77,5.78,1.56,8.75,2.37,2.97.81,5.87,1.72,8.7,2.74,2.83,1.02,5.38,2.28,7.65,3.79,2.27,1.51,4.07,3.4,5.4,5.68,1.33,2.28,1.99,5.07,1.99,8.37,0,5.12-1.26,9.28-3.77,12.47-2.52,3.19-5.97,5.53-10.38,7-4.4,1.47-9.5,2.21-15.3,2.21Z"/>
  </g>
  <path class="cls-1" d="m110.78,120.16v143.76c0,9.64,2.78,19.07,8.02,27.16l173.91,268.82c1.62,2.51,5.52,1.36,5.52-1.63v-155.27L116.31,118.54c-1.62-2.53-5.53-1.38-5.53,1.62Z"/>
  <path class="cls-1" d="m298.23,120.16v143.76c0,9.64,2.78,19.07,8.02,27.16l173.91,268.82c1.62,2.51,5.52,1.36,5.52-1.63v-155.27L303.76,118.54c-1.62-2.53-5.53-1.38-5.53,1.62Z"/>
  <path class="cls-1" d="m597.07,119.12v115.49c0,10.6-3.37,20.92-9.62,29.48l-101.38,138.86.05-124.45c0-10.57,3.36-20.87,9.58-29.42l95.94-131.74c1.71-2.35,5.43-1.14,5.43,1.77Z"/>
  <path class="cls-1" d="m931.45,197.27v-63.48c0-1.66-1.34-3-3-3h-252.29c-1.66,0-3,1.34-3,3v411.79c0,1.66,1.34,3,3,3h252.29c1.66,0,3-1.34,3-3v-63.48c0-1.66-1.34-3-3-3h-171.12V200.27h171.12c1.66,0,3-1.34,3-3Z"/>
  <path class="cls-1" d="m913.44,289.41h-156.11l36.35,64.39c1.77,3.14,5.1,5.08,8.71,5.08h111.05c1.66,0,3-1.34,3-3v-63.48c0-1.66-1.34-3-3-3Z"/>
  <path class="cls-1" d="m2025.72,289.41h-156.11l36.35,64.39c1.77,3.14,5.1,5.08,8.71,5.08h111.05c1.66,0,3-1.34,3-3v-63.48c0-1.66-1.34-3-3-3Z"/>
  <path class="cls-1" d="m2043.72,197.27v-63.48c0-1.66-1.34-3-3-3h-252.29c-1.66,0-3,1.34-3,3v411.79c0,1.66,1.34,3,3,3h252.29c1.66,0,3-1.34,3-3v-63.48c0-1.66-1.34-3-3-3h-171.12V200.27h171.12c1.66,0,3-1.34,3-3Z"/>
  <path class="cls-1" d="m1173.39,114.87l-157.94,276.86c-4.31,7.55-6.57,16.09-6.57,24.78v141.55c0,3.08,4.1,4.16,5.61,1.48l161.5-286.01,161.5,286.01c1.52,2.69,5.61,1.61,5.61-1.48v-141.55c0-8.69-2.26-17.23-6.57-24.78l-157.94-276.86c-1.15-2.02-4.06-2.02-5.21,0Z"/>
  <path class="cls-1" d="m1541.09,405.85l-161.5-286.01c-1.52-2.69-5.61-1.61-5.61,1.48v141.55c0,8.69,2.26,17.23,6.57,24.78l157.94,276.86c1.15,2.02,4.06,2.02,5.21,0l157.94-276.86c4.31-7.55,6.57-16.09,6.57-24.78V121.31c0-3.08-4.1-4.16-5.61-1.48l-161.5,286.01Z"/>
</svg>