<?xml version="1.0" encoding="UTF-8"?>
<svg id="Logo" xmlns="http://www.w3.org/2000/svg" viewBox="0 0 932.18 1020.08">
  <defs>
    <style>
      .cls-1 {
        fill: #f0b910;
      }

      .cls-2 {
        fill: #d64646;
      }

      .cls-3 {
        fill: #1e4db8;
      }
    </style>
  </defs>
  <g>
    <path class="cls-3" d="m223.25,120.16v143.76c0,9.64,2.78,19.07,8.02,27.16l173.91,268.82c1.62,2.51,5.52,1.36,5.52-1.63v-155.27L228.78,118.54c-1.62-2.53-5.53-1.38-5.53,1.62Z"/>
    <path class="cls-2" d="m410.7,120.16v143.76c0,9.64,2.78,19.07,8.02,27.16l173.91,268.82c1.62,2.51,5.52,1.36,5.52-1.63v-155.27L416.23,118.54c-1.62-2.53-5.53-1.38-5.53,1.62Z"/>
    <path class="cls-1" d="m709.53,119.12v115.49c0,10.6-3.37,20.92-9.62,29.48l-101.38,138.86.05-124.45c0-10.57,3.36-20.87,9.58-29.42l95.94-131.74c1.71-2.35,5.43-1.14,5.43,1.77Z"/>
  </g>
  <g>
    <path d="m344.97,731.93l-14.03-50.41h7.49l8.96,34.02c.15.54.33,1.31.55,2.31.22,1,.45,2.05.7,3.12.24,1.08.44,2.03.59,2.87h.51c.15-.64.28-1.35.4-2.13.12-.78.27-1.57.44-2.35.17-.78.33-1.52.48-2.2.15-.69.24-1.22.29-1.62l8.38-34.02h9.04l8.38,34.02c.15.54.33,1.31.55,2.31.22,1,.44,2.05.66,3.12.22,1.08.4,2.03.55,2.87h.51c.15-.64.29-1.33.44-2.09.15-.76.32-1.53.51-2.31.2-.78.38-1.52.55-2.2.17-.69.31-1.25.4-1.69l9.04-34.02h6.61l-14.03,50.41h-8.38l-8.74-34.24c-.15-.73-.32-1.6-.51-2.61-.2-1-.39-2.04-.59-3.12-.2-1.08-.37-2.01-.51-2.79h-.44c-.1.83-.25,1.79-.44,2.87-.2,1.08-.4,2.13-.62,3.16-.22,1.03-.4,1.86-.55,2.5l-8.52,34.24h-8.67Z"/>
    <path d="m408.68,731.93v-50.41h38.8v6.03h-31.82v15.58h28.58v6.02h-28.58v16.75h32.26v6.03h-39.24Z"/>
    <path d="m457.02,731.93l19.91-50.41h9.18l19.99,50.41h-7.57l-4.92-12.49h-24.54l-4.85,12.49h-7.2Zm14.33-18.44h19.91l-6.1-15.8c-.15-.44-.37-1.05-.66-1.84-.29-.78-.61-1.65-.96-2.61-.34-.96-.69-1.93-1.03-2.94-.34-1-.66-1.92-.96-2.76h-.44c-.34.98-.74,2.11-1.18,3.38-.44,1.27-.88,2.51-1.32,3.71-.44,1.2-.81,2.22-1.1,3.05l-6.17,15.8Z"/>
    <path d="m528.52,731.93l-18.81-50.41h7.57l12.93,35.71c.29.69.59,1.47.88,2.35s.59,1.74.88,2.57c.29.83.56,1.57.81,2.2h.44c.19-.59.44-1.3.73-2.13.29-.83.59-1.68.88-2.53.29-.86.59-1.68.88-2.46l12.79-35.71h7.35l-18.88,50.41h-8.45Z"/>
    <path d="m567.31,731.93v-50.41h38.8v6.03h-31.82v15.58h28.58v6.02h-28.58v16.75h32.26v6.03h-39.24Z"/>
    <path d="m150.55,820.99c-5.14,0-9.5-.94-13.08-2.83-3.58-1.89-6.31-4.75-8.19-8.6-1.89-3.85-2.83-8.73-2.83-14.66,0-8.77,2.13-15.31,6.39-19.62,4.26-4.31,10.19-6.47,17.78-6.47,4.31,0,8.13.7,11.46,2.09s5.94,3.5,7.83,6.32c1.89,2.82,2.83,6.36,2.83,10.62h-7.05c0-2.94-.62-5.36-1.87-7.27-1.25-1.91-3-3.34-5.25-4.3-2.25-.96-4.9-1.43-7.94-1.43-3.53,0-6.57.69-9.11,2.06-2.55,1.37-4.48,3.49-5.8,6.36-1.32,2.87-1.98,6.55-1.98,11.06v1.54c0,4.46.66,8.1,1.98,10.91,1.32,2.82,3.24,4.89,5.77,6.21,2.52,1.32,5.57,1.98,9.15,1.98,3.13,0,5.84-.46,8.12-1.4,2.28-.93,4.04-2.36,5.29-4.3,1.25-1.93,1.87-4.37,1.87-7.31h6.83c0,4.36-.97,7.94-2.9,10.73-1.94,2.79-4.57,4.88-7.9,6.25-3.33,1.37-7.13,2.06-11.39,2.06Z"/>
    <path d="m209.55,820.99c-5.24,0-9.74-.96-13.48-2.87-3.75-1.91-6.64-4.8-8.67-8.67-2.03-3.87-3.05-8.72-3.05-14.55s1.02-10.74,3.05-14.59c2.03-3.85,4.92-6.72,8.67-8.63,3.75-1.91,8.24-2.87,13.48-2.87s9.74.96,13.48,2.87c3.75,1.91,6.64,4.79,8.67,8.63,2.03,3.85,3.05,8.71,3.05,14.59s-1.02,10.68-3.05,14.55c-2.03,3.87-4.92,6.76-8.67,8.67-3.75,1.91-8.24,2.87-13.48,2.87Zm0-6.03c2.74,0,5.23-.37,7.46-1.1,2.23-.73,4.11-1.9,5.66-3.49,1.54-1.59,2.73-3.6,3.56-6.02.83-2.42,1.25-5.3,1.25-8.63v-1.54c0-3.38-.42-6.28-1.25-8.71-.83-2.42-2.02-4.43-3.56-6.03-1.54-1.59-3.43-2.76-5.66-3.49-2.23-.73-4.71-1.1-7.46-1.1s-5.29.37-7.5,1.1c-2.2.73-4.09,1.9-5.66,3.49-1.57,1.59-2.76,3.6-3.56,6.03-.81,2.42-1.21,5.33-1.21,8.71v1.54c0,3.33.4,6.21,1.21,8.63.81,2.42,2,4.43,3.56,6.02,1.57,1.59,3.45,2.76,5.66,3.49,2.21.73,4.7,1.1,7.5,1.1Z"/>
    <path d="m249.23,820.1v-50.41h6.98v44.31h25.06v6.1h-32.04Z"/>
    <path d="m293.02,820.1v-50.41h6.98v44.31h25.06v6.1h-32.04Z"/>
    <path d="m331.01,820.1l19.91-50.41h9.18l19.99,50.41h-7.57l-4.92-12.49h-24.54l-4.85,12.49h-7.2Zm14.33-18.44h19.91l-6.1-15.8c-.15-.44-.37-1.05-.66-1.84-.29-.78-.61-1.65-.96-2.61-.34-.96-.69-1.93-1.03-2.94-.34-1-.66-1.92-.96-2.76h-.44c-.34.98-.74,2.11-1.18,3.38-.44,1.27-.88,2.51-1.32,3.71-.44,1.2-.81,2.22-1.1,3.05l-6.17,15.8Z"/>
    <path d="m391.34,820.1v-50.41h26.01c2.89,0,5.39.5,7.5,1.51,2.11,1,3.73,2.41,4.89,4.23,1.15,1.81,1.73,3.97,1.73,6.47,0,1.91-.34,3.67-1.03,5.29-.69,1.62-1.64,2.96-2.87,4.04-1.23,1.08-2.62,1.89-4.19,2.42v.29c1.76.39,3.35,1.1,4.78,2.13,1.42,1.03,2.56,2.39,3.42,4.08.86,1.69,1.29,3.76,1.29,6.21,0,3.28-.69,5.93-2.06,7.94-1.37,2.01-3.21,3.48-5.51,4.41-2.3.93-4.95,1.4-7.94,1.4h-26.01Zm6.98-28.8h17.71c1.66,0,3.11-.33,4.33-.99,1.22-.66,2.19-1.59,2.9-2.79.71-1.2,1.07-2.56,1.07-4.08,0-2.65-.71-4.59-2.13-5.84-1.42-1.25-3.31-1.87-5.66-1.87h-18.22v15.58Zm0,22.78h18.96c2.5,0,4.53-.65,6.1-1.95,1.57-1.3,2.35-3.47,2.35-6.5,0-1.86-.34-3.42-1.03-4.67-.69-1.25-1.69-2.18-3.01-2.79-1.32-.61-2.99-.92-5-.92h-18.37v16.83Z"/>
    <path d="m469.66,820.99c-5.24,0-9.74-.96-13.48-2.87-3.75-1.91-6.64-4.8-8.67-8.67-2.03-3.87-3.05-8.72-3.05-14.55s1.02-10.74,3.05-14.59c2.03-3.85,4.92-6.72,8.67-8.63,3.75-1.91,8.24-2.87,13.48-2.87s9.74.96,13.48,2.87c3.75,1.91,6.64,4.79,8.67,8.63,2.03,3.85,3.05,8.71,3.05,14.59s-1.02,10.68-3.05,14.55c-2.03,3.87-4.92,6.76-8.67,8.67-3.75,1.91-8.24,2.87-13.48,2.87Zm0-6.03c2.74,0,5.23-.37,7.46-1.1,2.23-.73,4.11-1.9,5.66-3.49,1.54-1.59,2.73-3.6,3.56-6.02.83-2.42,1.25-5.3,1.25-8.63v-1.54c0-3.38-.42-6.28-1.25-8.71-.83-2.42-2.02-4.43-3.56-6.03-1.54-1.59-3.43-2.76-5.66-3.49-2.23-.73-4.71-1.1-7.46-1.1s-5.29.37-7.5,1.1c-2.2.73-4.09,1.9-5.66,3.49-1.57,1.59-2.76,3.6-3.56,6.03-.81,2.42-1.21,5.33-1.21,8.71v1.54c0,3.33.4,6.21,1.21,8.63.81,2.42,2,4.43,3.56,6.02,1.57,1.59,3.45,2.76,5.66,3.49,2.21.73,4.7,1.1,7.5,1.1Z"/>
    <path d="m509.34,820.1v-50.41h26.53c3.43,0,6.28.62,8.56,1.87,2.28,1.25,3.98,2.99,5.11,5.22,1.13,2.23,1.69,4.79,1.69,7.68,0,3.48-.78,6.47-2.35,8.96s-3.72,4.29-6.47,5.36l10.58,21.31h-7.64l-9.85-20.06h-19.18v20.06h-6.98Zm6.98-26.01h18.88c2.79,0,4.98-.86,6.58-2.57,1.59-1.71,2.39-4.07,2.39-7.05,0-1.86-.34-3.43-1.03-4.7-.69-1.27-1.69-2.27-3.01-2.98-1.32-.71-2.96-1.07-4.92-1.07h-18.88v18.37Z"/>
    <path d="m561.36,820.1l19.91-50.41h9.18l19.99,50.41h-7.57l-4.92-12.49h-24.54l-4.85,12.49h-7.2Zm14.33-18.44h19.91l-6.1-15.8c-.15-.44-.37-1.05-.66-1.84-.29-.78-.61-1.65-.96-2.61-.34-.96-.69-1.93-1.03-2.94-.34-1-.66-1.92-.96-2.76h-.44c-.34.98-.74,2.11-1.18,3.38-.44,1.27-.88,2.51-1.32,3.71-.44,1.2-.81,2.22-1.1,3.05l-6.17,15.8Z"/>
    <path d="m627.64,820.1v-44.31h-17.27v-6.1h41.66v6.1h-17.41v44.31h-6.98Z"/>
    <path d="m664.23,820.1v-50.41h6.98v50.41h-6.98Z"/>
    <path d="m710.89,820.99c-5.24,0-9.74-.96-13.48-2.87-3.75-1.91-6.64-4.8-8.67-8.67-2.03-3.87-3.05-8.72-3.05-14.55s1.02-10.74,3.05-14.59c2.03-3.85,4.92-6.72,8.67-8.63,3.75-1.91,8.24-2.87,13.48-2.87s9.74.96,13.48,2.87c3.75,1.91,6.64,4.79,8.67,8.63,2.03,3.85,3.05,8.71,3.05,14.59s-1.02,10.68-3.05,14.55c-2.03,3.87-4.92,6.76-8.67,8.67-3.75,1.91-8.24,2.87-13.48,2.87Zm0-6.03c2.74,0,5.23-.37,7.46-1.1,2.23-.73,4.11-1.9,5.66-3.49,1.54-1.59,2.73-3.6,3.56-6.02.83-2.42,1.25-5.3,1.25-8.63v-1.54c0-3.38-.42-6.28-1.25-8.71-.83-2.42-2.02-4.43-3.56-6.03-1.54-1.59-3.43-2.76-5.66-3.49-2.23-.73-4.71-1.1-7.46-1.1s-5.29.37-7.5,1.1c-2.2.73-4.09,1.9-5.66,3.49-1.57,1.59-2.76,3.6-3.56,6.03-.81,2.42-1.21,5.33-1.21,8.71v1.54c0,3.33.4,6.21,1.21,8.63.81,2.42,2,4.43,3.56,6.02,1.57,1.59,3.45,2.76,5.66,3.49,2.21.73,4.7,1.1,7.5,1.1Z"/>
    <path d="m750.57,820.1v-50.41h6.76l24.47,33.21c.25.29.56.73.96,1.32.39.59.78,1.16,1.18,1.73.39.56.71,1.07.96,1.51h.29v-37.77h6.83v50.41h-6.39l-24.76-33.8c-.34-.54-.84-1.3-1.51-2.28-.66-.98-1.21-1.76-1.65-2.35h-.37v38.43h-6.76Z"/>
    <path d="m262.24,908.28v-50.41h24.91c3.48,0,6.37.65,8.67,1.95,2.3,1.3,4.03,3.1,5.18,5.4,1.15,2.3,1.73,4.97,1.73,8.01s-.64,5.82-1.91,8.19c-1.27,2.38-3.07,4.22-5.4,5.55-2.33,1.32-5.11,1.98-8.34,1.98h-17.85v19.32h-6.98Zm6.98-25.35h17.41c2.74,0,4.93-.86,6.58-2.57,1.64-1.71,2.46-4.07,2.46-7.05,0-2.01-.34-3.7-1.03-5.07-.69-1.37-1.69-2.44-3.01-3.2-1.32-.76-2.99-1.14-5-1.14h-17.41v19.03Z"/>
    <path d="m306.03,908.28l19.91-50.41h9.18l19.99,50.41h-7.57l-4.92-12.49h-24.54l-4.85,12.49h-7.2Zm14.33-18.44h19.91l-6.1-15.8c-.15-.44-.37-1.05-.66-1.84-.29-.78-.61-1.65-.96-2.61-.34-.96-.69-1.93-1.03-2.94-.34-1-.66-1.92-.96-2.76h-.44c-.34.98-.74,2.11-1.18,3.38-.44,1.27-.88,2.51-1.32,3.71-.44,1.2-.81,2.22-1.1,3.05l-6.17,15.8Z"/>
    <path d="m366.35,908.28v-50.41h26.53c3.43,0,6.28.62,8.56,1.87,2.28,1.25,3.98,2.99,5.11,5.22,1.13,2.23,1.69,4.79,1.69,7.68,0,3.48-.78,6.47-2.35,8.96s-3.72,4.29-6.47,5.36l10.58,21.31h-7.64l-9.85-20.06h-19.18v20.06h-6.98Zm6.98-26.01h18.88c2.79,0,4.98-.86,6.58-2.57,1.59-1.71,2.39-4.07,2.39-7.05,0-1.86-.34-3.43-1.03-4.7-.69-1.27-1.69-2.27-3.01-2.98-1.32-.71-2.96-1.07-4.92-1.07h-18.88v18.37Z"/>
    <path d="m434.69,908.28v-44.31h-17.27v-6.1h41.66v6.1h-17.41v44.31h-6.98Z"/>
    <path d="m471.28,908.28v-50.41h6.76l24.47,33.21c.25.29.56.73.96,1.32.39.59.78,1.16,1.18,1.73.39.56.71,1.07.96,1.51h.29v-37.77h6.83v50.41h-6.39l-24.76-33.8c-.34-.54-.84-1.3-1.51-2.28-.66-.98-1.21-1.76-1.65-2.35h-.37v38.43h-6.76Z"/>
    <path d="m529.77,908.28v-50.41h38.8v6.03h-31.82v15.58h28.58v6.02h-28.58v16.75h32.26v6.03h-39.24Z"/>
    <path d="m583.92,908.28v-50.41h26.53c3.43,0,6.28.62,8.56,1.87,2.28,1.25,3.98,2.99,5.11,5.22,1.13,2.23,1.69,4.79,1.69,7.68,0,3.48-.78,6.47-2.35,8.96s-3.72,4.29-6.47,5.36l10.58,21.31h-7.64l-9.85-20.06h-19.18v20.06h-6.98Zm6.98-26.01h18.88c2.79,0,4.98-.86,6.58-2.57,1.59-1.71,2.39-4.07,2.39-7.05,0-1.86-.34-3.43-1.03-4.7-.69-1.27-1.69-2.27-3.01-2.98-1.32-.71-2.96-1.07-4.92-1.07h-18.88v18.37Z"/>
    <path d="m660.26,909.16c-2.74,0-5.38-.27-7.9-.81-2.52-.54-4.76-1.41-6.72-2.61-1.96-1.2-3.52-2.76-4.67-4.67-1.15-1.91-1.73-4.26-1.73-7.05,0-.24.01-.49.04-.73.02-.24.04-.49.04-.73h7.05c0,.15-.01.38-.04.7-.03.32-.04.6-.04.85,0,1.96.59,3.63,1.76,5,1.18,1.37,2.8,2.39,4.89,3.05,2.08.66,4.45.99,7.09.99,1.18,0,2.41-.07,3.71-.22s2.55-.4,3.75-.77c1.2-.37,2.28-.86,3.23-1.47.96-.61,1.71-1.37,2.28-2.28.56-.91.84-2.02.84-3.34,0-1.66-.48-3.05-1.43-4.15s-2.22-2.01-3.78-2.72c-1.57-.71-3.34-1.35-5.33-1.91-1.98-.56-4.03-1.11-6.14-1.65-2.11-.54-4.15-1.16-6.13-1.87-1.98-.71-3.76-1.59-5.33-2.65-1.57-1.05-2.83-2.36-3.78-3.93-.96-1.57-1.43-3.48-1.43-5.73,0-2.11.43-3.99,1.29-5.66.86-1.66,2.13-3.07,3.82-4.22,1.69-1.15,3.78-2.03,6.28-2.65,2.5-.61,5.36-.92,8.6-.92,2.65,0,5.11.28,7.38.85,2.28.56,4.29,1.42,6.03,2.57,1.74,1.15,3.1,2.61,4.08,4.37.98,1.76,1.47,3.89,1.47,6.39v.88h-6.91v-1.1c0-1.66-.51-3.09-1.54-4.26-1.03-1.18-2.44-2.08-4.23-2.72-1.79-.64-3.81-.96-6.06-.96-2.94,0-5.39.28-7.35.84-1.96.56-3.42,1.37-4.37,2.42-.96,1.05-1.43,2.24-1.43,3.56,0,1.52.48,2.79,1.43,3.82s2.22,1.87,3.78,2.53c1.57.66,3.35,1.26,5.36,1.8,2.01.54,4.05,1.09,6.13,1.65,2.08.56,4.12,1.2,6.1,1.91,1.98.71,3.77,1.59,5.36,2.65,1.59,1.05,2.85,2.38,3.78,3.97.93,1.59,1.4,3.54,1.4,5.84,0,3.58-.88,6.48-2.64,8.71-1.76,2.23-4.19,3.86-7.27,4.89-3.09,1.03-6.66,1.54-10.73,1.54Z"/>
  </g>
</svg>